<svg xmlns="http://www.w3.org/2000/svg" version="1.1" xmlns:xlink="http://www.w3.org/1999/xlink" xmlns:svgjs="http://svgjs.com/svgjs" width="1000" height="1000"><rect width="1000" height="1000" rx="200" ry="200" fill="#f42a29"></rect><g transform="matrix(1.440922190201729,0,0,1.440922190201729,0.5367770249974342,5.908319478763303)"><svg xmlns="http://www.w3.org/2000/svg" version="1.1" xmlns:xlink="http://www.w3.org/1999/xlink" xmlns:svgjs="http://svgjs.com/svgjs" width="694" height="687"><svg xmlns="http://www.w3.org/2000/svg" fill-rule="evenodd" clip-rule="evenodd" image-rendering="optimizeQuality" shape-rendering="geometricPrecision" text-rendering="geometricPrecision" viewBox="0 0 694 687"><path fill="#f42a29" d="M453.5 665.5c.3-9.6-.4-19-2-28.5 0-1.4.4-2.8 1-4 22.6-5.1 45.3-10.1 68-15a32 32 0 0 0 16.5-29.5 433 433 0 0 0-8-146c-2-20-4.7-40-8-60-4.4-22-15-40.5-31.5-55.5-20.5-11-40.9-22.4-61-34-4.2-5-7.6-10.5-10-16.5a429 429 0 0 1 14.5-21 101.3 101.3 0 0 0 13.5-70.5 752 752 0 0 0 3-22c-.9-8.3-2.4-16.4-4.5-24.5 2.3-48.7-20.8-75.5-69.5-80.5-17.8-1.3-35.5-.3-53 3A58.6 58.6 0 0 0 285 94.5c-3.5 6.4-6.5 13.1-9 20-1.3 16.6-2 33.3-2.5 50a96.2 96.2 0 0 0 11.5 47l10 10a46.3 46.3 0 0 1 1 17l-1.5 1.5a50 50 0 0 0-21 5c-2.2 1.9-4 4-5.5 6.5l-9 20a36 36 0 0 1-4.5 3.5l-50 18a133 133 0 0 0-36.5 26.5 78.7 78.7 0 0 0-15 38c-1.8 12.8-3 25.6-3.5 38.5a1960 1960 0 0 0 3.5 74.5c.3 7.1 1.3 14.1 3 21l26.5 108-4.5 24c-2.3 3.8-4.8 7.5-7.5 11-88-54-141.8-132-161.5-234C-9 275.1 28.2 169.6 120.5 84c91.6-75.6 195.6-100 312-73C535 40.2 609.5 102.7 656 198.5a347.4 347.4 0 0 1 21 226c-25.9 96.2-82 168.7-168.5 217.5a337 337 0 0 1-55 23.5Z"></path><path fill="#f12929" d="M453.5 665.5a7 7 0 0 1-4 1 139 139 0 0 0-3-31.5 10 10 0 0 1 4-6c20.2-4.8 40.5-9.2 61-13a28.7 28.7 0 0 0 20.5-23.5 529 529 0 0 0 2-95c-2.7-17.7-5.7-35.4-9-53-2-18-4.3-36-7-54a102 102 0 0 0-29.5-57.5 1319.4 1319.4 0 0 0-60-34 63 63 0 0 1-15.5-19.5c-.8-2.8-.4-5.5 1-8a94.7 94.7 0 0 0 27.5-87.5c1.6-7 2.6-14 3-21a691 691 0 0 1-7.5-59.5A70.3 70.3 0 0 0 372.5 62a171 171 0 0 0-47 3A54.3 54.3 0 0 0 298 83.5a118 118 0 0 0-19 39c.7 16.4.3 32.7-1 49a64.9 64.9 0 0 0 19 45c3.8 8 4.4 16.4 2 25l-2.5 2.5a29.6 29.6 0 0 0-26.5 14.5 52.4 52.4 0 0 1-11.5 19.5 1956 1956 0 0 1-46 17c-18 7.2-32.8 18.4-44.5 33.5a103.6 103.6 0 0 0-13 49c-1 33.7 0 67.4 3 101 8.4 38.2 17.7 76.2 28 114 .7 10.2-.3 20.2-3 30-2 5.3-4.5 10.3-7.5 15-2-.6-3.6-1.6-5-3 2.7-3.5 5.2-7.2 7.5-11l4.5-24-26.5-108c-1.7-6.9-2.7-13.9-3-21a1960 1960 0 0 1-3.5-74.5c.5-12.9 1.7-25.7 3.5-38.5 1.7-14 6.7-26.7 15-38a133 133 0 0 1 36.5-26.5l50-18c1.6-1 3-2.2 4.5-3.5l9-20c1.5-2.5 3.3-4.6 5.5-6.5a50 50 0 0 1 21-5l1.5-1.5c.7-5.7.4-11.4-1-17l-10-10a96.2 96.2 0 0 1-11.5-47c.4-16.7 1.2-33.4 2.5-50 2.5-6.9 5.5-13.6 9-20 7.5-16.8 20-28 37.5-33.5 17.5-3.3 35.2-4.3 53-3 48.7 5 71.8 31.8 69.5 80.5 2.1 8 3.6 16.2 4.5 24.5a752 752 0 0 1-3 22c4.1 25.1-.4 48.6-13.5 70.5a429 429 0 0 0-14.5 21c2.4 6 5.8 11.5 10 16.5 20.1 11.6 40.5 23 61 34 16.6 15 27 33.5 31.5 55.5 3.3 20 6 40 8 60a433 433 0 0 1 8 146 32 32 0 0 1-16.5 29.5c-22.7 4.9-45.4 9.9-68 15-.6 1.2-1 2.6-1 4 1.6 9.4 2.3 19 2 28.5Z"></path><path fill="#ea2828" d="M449.5 666.5c-.7.9-1.7 1.2-3 1 .1-11-.9-21.8-3-32.5a11 11 0 0 1 8-10c20.8-4 41.4-8.3 62-13a28.7 28.7 0 0 0 16.5-26.5 562 562 0 0 0 1-88c-2.8-17.4-5.8-34.7-9-52-2-20-4.7-40-8-60a93.9 93.9 0 0 0-30.5-52.5l-56-31a89.6 89.6 0 0 1-18.5-23.5 8.3 8.3 0 0 1 1-7 94.1 94.1 0 0 0 28.5-87.5c1.3-7 2.3-14 3-21-3.3-18-5.5-36.2-6.5-54.5A61.6 61.6 0 0 0 393.5 69a138 138 0 0 0-73 1A50.8 50.8 0 0 0 298 88.5c-5.2 8.4-9.9 17-14 26a74.1 74.1 0 0 0-1.5 31 93 93 0 0 0 7.5 58 70.2 70.2 0 0 1 12 16c2.3 8.5 2 16.8-1 25l-21.5 7.5a50 50 0 0 0-12.5 20.5c-1.8 2.8-4 5.3-6.5 7.5-18 7.2-36 14.2-54 21-12.9 6.2-24 14.7-33.5 25.5a95.6 95.6 0 0 0-15 51c-1 33.4 0 66.7 3 100 9.3 41 19.1 81.8 29.5 122.5-2 9.6-4 19-6.5 28.5-2 3.6-4.1 6.9-6.5 10-1 .2-1.7-.2-2-1 3-4.7 5.5-9.7 7.5-15a89.2 89.2 0 0 0 3-30 2368.3 2368.3 0 0 1-28-114c-3-33.6-4-67.3-3-101 .3-17.5 4.6-33.8 13-49a104.5 104.5 0 0 1 44.5-33.5 1956 1956 0 0 0 46-17c5.2-5.6 9-12.1 11.5-19.5 6-9.6 14.9-14.5 26.5-14.5l2.5-2.5c2.4-8.6 1.8-17-2-25a64.9 64.9 0 0 1-19-45c1.3-16.3 1.7-32.6 1-49a118 118 0 0 1 19-39c7.3-9 16.4-15.2 27.5-18.5a171 171 0 0 1 47-3 70.3 70.3 0 0 1 64.5 41.5 691 691 0 0 0 7.5 59.5c-.4 7-1.4 14-3 21 5.9 34-3.3 63.1-27.5 87.5a10.3 10.3 0 0 0-1 8 63 63 0 0 0 15.5 19.5 1360 1360 0 0 1 60 34 102 102 0 0 1 29.5 57.5c2.7 18 5 36 7 54 3.3 17.6 6.3 35.3 9 53a529 529 0 0 1-2 95 28.7 28.7 0 0 1-20.5 23.5c-20.5 3.8-40.8 8.2-61 13a10 10 0 0 0-4 6 139 139 0 0 1 3 31.5Z"></path><path fill="#e32727" d="M446.5 667.5c-.3.8-1 1.2-2 1-.2-11-1.2-22-3-33 .7-7.9 5-12.4 13-13.5l55-11a26.7 26.7 0 0 0 18.5-27.5c2-28 2.3-56 1-84a1380 1380 0 0 1-16-107c-3-23-13.1-42.2-30.5-57.5-18.8-11-37.8-21.6-57-32a104.8 104.8 0 0 1-18.5-22.5 15 15 0 0 1 1-10 93.4 93.4 0 0 0 28.5-86.5l3-21a330.4 330.4 0 0 1-6.5-52.5 5.5 5.5 0 0 0-1.5-3v-1a20 20 0 0 0-4.5-11A64.5 64.5 0 0 0 384.5 69a140.4 140.4 0 0 0-63 3A46 46 0 0 0 303 85.5a166 166 0 0 0-17 30 68.2 68.2 0 0 0-1.5 30c-3 18.5-1.2 36.5 5.5 54a129 129 0 0 0 12 15c1.3 2.2 2.3 4.6 3 7 1 7.8.6 15.4-1 23-4.5 4.4-10 6.6-16.5 6.5a18.2 18.2 0 0 0-12.5 9.5 56.6 56.6 0 0 1-13.5 21.5l-52 20c-13 6.4-24.5 15-34.5 25.5a65.7 65.7 0 0 0-12 28 360.9 360.9 0 0 0-3 70l3 50c9.2 41.5 19 82.8 29.5 124a182 182 0 0 1-7.5 32c-2 2.6-4 5.2-5.5 8-1 .2-1.7-.2-2-1 2.4-3.1 4.6-6.4 6.5-10 2.4-9.4 4.6-19 6.5-28.5A4675.7 4675.7 0 0 1 161 477.5c-3-33.3-4-66.6-3-100a95.6 95.6 0 0 1 15-51 104.2 104.2 0 0 1 33.5-25.5c18-6.8 36-13.8 54-21 2.5-2.2 4.7-4.7 6.5-7.5a50 50 0 0 1 12.5-20.5l21.5-7.5c3-8.2 3.3-16.5 1-25a70.2 70.2 0 0 0-12-16 93 93 0 0 1-7.5-58 74.1 74.1 0 0 1 1.5-31c4.1-9 8.8-17.6 14-26A50.8 50.8 0 0 1 320.5 70a138 138 0 0 1 73-1 61.6 61.6 0 0 1 41.5 39.5c1 18.3 3.2 36.5 6.5 54.5-.7 7-1.7 14-3 21a94.1 94.1 0 0 1-28.5 87.5 8.3 8.3 0 0 0-1 7c4.9 8.9 11 16.7 18.5 23.5l56 31a93.9 93.9 0 0 1 30.5 52.5c3.3 20 6 40 8 60 3.2 17.3 6.2 34.6 9 52a562 562 0 0 1-1 88c-.3 12.2-5.8 21-16.5 26.5a1704 1704 0 0 1-62 13 11 11 0 0 0-8 10 156 156 0 0 1 3 32.5Z"></path><path fill="#020000" d="M431.5 106.5v1c-.6 3.5-1.6 6.8-3 10a93.2 93.2 0 0 0-12-4.5 361 361 0 0 0-38 0c-8.2 2-16.2 4.7-24 8a26 26 0 0 0-11 14L327 147.5a73.7 73.7 0 0 0-1.5 38 11 11 0 0 1-6.5-1c-.5-4.9-1.9-9.6-4-14l-13.5-9.5a4.7 4.7 0 0 0-5 .5 32.7 32.7 0 0 0-6 14 31 31 0 0 1 1-28.5 59 59 0 0 1-1.5-30.5A131.8 131.8 0 0 1 313.5 80a61.6 61.6 0 0 1 43-9.5c17.4-1.2 34 1.7 50 8.5 6.8 4.5 12.6 10 17.5 16.5 2.4 3.8 4.9 7.5 7.5 11Z"></path><path fill="#e49d76" d="M428.5 117.5c1.5 2 2.3 4.3 2.5 7 .2 7.7.9 15.4 2 23 1.5 2 2.4 4.4 2.5 7-11.5-.7-19.3 4.3-23.5 15-.2 6.7-.7 13.4-1.5 20a65.8 65.8 0 0 0-8 5.5l8.5-1.5c3 0 5.7 1 8 3a98 98 0 0 0-5-13 4.2 4.2 0 0 1 0-4c2.1 4.7 4.6 9.2 7.5 13.5 3.9 1.4 7.9 1.9 12 1.5-.5-2.3-.8-4.6-1-7 1.3 1.3 2.1 3 2.5 5a94 94 0 0 1-8 46 210.5 210.5 0 0 1-21.5 29.5l-9 1.5a76.3 76.3 0 0 1-60.5-31 152.3 152.3 0 0 1-18.5-32l-1 1a41.2 41.2 0 0 0 10.5 36 97 97 0 0 1 28 43c1 9.1.5 18.1-1.5 27 .5 3 1.2 6 2 9 0 1-.4 1.6-1 2-.8-4.9-2.5-9.4-5-13.5l-13-3.5c-13-8.5-23.8-19.1-32.5-32 .8-8 3-15.7 6.5-23a279 279 0 0 0 0-43 16 16 0 0 1-13.5-8c-5-8-7.2-16.6-6.5-26a33 33 0 0 1 6-14 4.7 4.7 0 0 1 5-.5l13.5 9.5c2.1 4.4 3.5 9.1 4 14 2 1 4.2 1.3 6.5 1a73.7 73.7 0 0 1 1.5-38l16.5-12.5a26 26 0 0 1 11-14c7.8-3.3 15.8-6 24-8a361 361 0 0 1 38 0c4.1 1.2 8.1 2.7 12 4.5Z"></path><path fill="#0d0906" d="M374.5 147.5a62 62 0 0 1 27 4.5c2 1.9 2.4 4 1 6.5a65.7 65.7 0 0 1-6.5 4 17 17 0 0 1-5.5-4.5 72 72 0 0 0-27-2 16 16 0 0 0-7.5 2.5 11 11 0 0 1 5.5-5.5c4.2-2.3 8.6-4.2 13-5.5Z"></path><path fill="#cb8c69" d="M435.5 154.5v1a32 32 0 0 0-16 8.5c5.7.2 11.4.7 17 1.5-.7 6-2.7 11.4-6 16.5.8 1.8 1.5 3.6 2 5.5.2 2.4.5 4.7 1 7-4.1.4-8.1-.1-12-1.5a88.6 88.6 0 0 1-7.5-13.5 4.2 4.2 0 0 0 0 4 98 98 0 0 1 5 13c-2.3-2-5-3-8-3l-8.5 1.5a63 63 0 0 1 8-5.5c.8-6.6 1.3-13.3 1.5-20 4.2-10.7 12-15.7 23.5-15Z"></path><path fill="#100a07" d="M435.5 155.5c2 3.3 2.4 6.6 1 10-5.6-.8-11.3-1.3-17-1.5a32 32 0 0 1 16-8.5Z"></path><path fill="#74503c" d="M373.5 159.5c5.4-.3 10.4.9 15 3.5-7.4-2-15-2-22.5.5l-1.5-.5c3-1.3 6-2.5 9-3.5Z"></path><path fill="#644a3c" d="M381.5 163.5c-.9.6-1.9 1-3 1-.4-.6-1-1-2-1a53 53 0 0 1-8 2c4-2.9 8.4-3.5 13-2Z"></path><path fill="#121111" d="M381.5 163.5c1.9.2 3.2 1.2 4 3-.7 4-3 5.5-7 4.5-.9-1.6-1.5-3.2-2-5 .3-1 1-1.5 2-1.5 1.1 0 2.1-.4 3-1Z"></path><path fill="#efedec" d="M378.5 164.5c-1 0-1.7.5-2 1.5.5 1.8 1.1 3.4 2 5 4 1 6.3-.5 7-4.5a8.8 8.8 0 0 1 .5 7c-.7.8-1.5 1-2.5 1 1.4-1.2 1.2-1.8-.5-2a18 18 0 0 1-4 1c-2.9-.9-5.7-1.9-8.5-3a19 19 0 0 1-4-3.5c.5-.7 1.2-1.2 2-1.5a53 53 0 0 0 8-2c1 0 1.6.4 2 1Z"></path><path fill="#c4c4c4" d="M380.5 167.5c1-1.2 2-1 3 .5-1 .5-2 .3-3-.5Z"></path><path fill="#1d1c1c" d="M422.5 171.5c2-.2 4 0 6 .5a6.5 6.5 0 0 1 1 4.5c-6.3 4.4-8.6 2.7-7-5Z"></path><path fill="#907464" d="M370.5 170.5c2.8 1.1 5.6 2.1 8.5 3a18 18 0 0 0 4-1c1.7.2 1.9.8.5 2-5.1.8-9.5-.5-13-4Z"></path><path fill="#d7d2d0" d="M422.5 171.5c-1.6 7.7.7 9.4 7 5-.1 3.3-1.8 5-5 5a18 18 0 0 1-11-6c2.4-2.7 5.4-4 9-4Z"></path><path fill="#d08f6b" d="m396.5 269.5-2 3c-1.5 0-2.5.6-3 2a40 40 0 0 1 .5 23 101 101 0 0 1-7.5 22v1c-5 5-9.4 10.8-13 17-1.6 1.2-2.8 3-3.5 5a76 76 0 0 0-4 11c-3-9.8-6.2-19.4-9.5-29 .6-.4 1-1 1-2-.8-3-1.5-6-2-9 2-8.9 2.5-17.9 1.5-27a97 97 0 0 0-28-43 41.2 41.2 0 0 1-10.5-36l1-1c4.9 11.5 11 22.1 18.5 32a76.3 76.3 0 0 0 60.5 31Z"></path><path fill="#5f4231" d="M384.5 233.5c0-.5.4-.9 1-1a48 48 0 0 0 26 7.5c-10 1.6-19-.5-27-6.5Z"></path><path fill="#d62727" d="M431.5 106.5c-2.6-3.5-5.1-7.2-7.5-11A68.6 68.6 0 0 0 406.5 79c-16-6.8-32.6-9.7-50-8.5-15.6-2.1-30 1-43 9.5-9.8 10.8-17.7 23-23.5 36.5a59 59 0 0 0 1.5 30.5 31 31 0 0 0-1 28.5c-.7 9.4 1.5 18 6.5 26a16 16 0 0 0 13.5 8 279 279 0 0 1 0 43 113 113 0 0 1-25 .5c-2.2 1.5-4 3.3-5.5 5.5-2.5 6-4.6 12-6.5 18-1.4.5-2 1.5-2 3-2 2.6-4.3 5-7 7a882 882 0 0 0-59 20.5c.6.4.9.9 1 1.5-1.8 0-3.5.5-5 1.5l-18 13a5.7 5.7 0 0 0-3 5.5 40.8 40.8 0 0 0-11.5 21 118.7 118.7 0 0 0-3.5 32 376.5 376.5 0 0 0 0 50c1.4 13.6 2 27.3 2 41a5511 5511 0 0 0 28.5 117c3 4.4 4 9 2.5 14a22.8 22.8 0 0 0-4 21c-.5 3.4-1.9 6.4-4 9-.7-.1-1.4 0-2 .5l-6 7.5a7 7 0 0 1-3-2c1.6-2.8 3.4-5.4 5.5-8 3.5-10.4 6-21 7.5-32a4184.5 4184.5 0 0 1-29.5-124l-3-50c-1.3-23.4-.3-46.8 3-70a65.7 65.7 0 0 1 12-28c10-10.6 21.5-19 34.5-25.5l52-20a56.6 56.6 0 0 0 13.5-21.5c2.7-5 6.9-8.2 12.5-9.5 6.5 0 12-2.1 16.5-6.5 1.6-7.6 2-15.2 1-23-.7-2.4-1.7-4.8-3-7a129 129 0 0 1-12-15 103.2 103.2 0 0 1-5.5-54 68.2 68.2 0 0 1 1.5-30 166 166 0 0 1 17-30A46 46 0 0 1 321.5 72c20.7-5.8 41.7-6.8 63-3 17.8 3.1 32 12 42.5 26.5a20 20 0 0 1 4.5 11Z"></path><path fill="#4e9bf0" d="M394.5 272.5a60 60 0 0 1 21 27c2.5 6.6 5.2 13 8 19.5a5 5 0 0 1-3 .5c-5-2-10.4-3-16-3-6.8.4-13.4 1.4-20 3a101 101 0 0 0 7.5-22 40 40 0 0 0-.5-23c.5-1.4 1.5-2 3-2Z"></path><path fill="#fdfdfd" d="M273.5 276.5a51 51 0 0 0 7.5 20 180 180 0 0 0 13.5 17.5 237 237 0 0 0 23.5-1.5c3 0 6 .4 9 1 5 13.3 9.8 26.6 14.5 40a816.5 816.5 0 0 0-56 9c-9 1.2-18 2.7-27 4.5-3.3.7-6.3 1.9-9 3.5-1-.1-1.8-.8-2-2 1-4 1.2-8 .5-12a541.6 541.6 0 0 1-15.5-24 265 265 0 0 1 51-16 29 29 0 0 0 8-2 92.9 92.9 0 0 1-20-35c0-1.5.6-2.5 2-3Z"></path><path fill="#559cee" d="M271.5 279.5a92.9 92.9 0 0 0 20 35 29 29 0 0 1-8 2c-7.8-9-14.2-19-19-30 2.7-2 5-4.4 7-7Z"></path><path fill="#f97c7c" d="M264.5 286.5c4.8 11 11.2 21 19 30a265 265 0 0 0-51 16 64.4 64.4 0 0 0-26-24c-.1-.6-.4-1.1-1-1.5a882 882 0 0 1 59-20.5Z"></path><path fill="#f87c7c" d="M415.5 299.5c6.5 4.7 13.1 9.2 20 13.5 13.2 6 25.8 13 38 20.5a14.7 14.7 0 0 0-4 15h-1c.2-1.3-.2-2.5-1-3.5-4.6-1-8.6-3-12-6a3.8 3.8 0 0 0-4 .5 25 25 0 0 0-14-5.5c-4.2-6.3-9.2-7-15-2.5a76 76 0 0 0-12-8c2.4-1 4.6-.4 6.5 2 .5-2 .7-4 .5-6h3c1 .1 2 0 3-.5-2.8-6.4-5.5-13-8-19.5Z"></path><path fill="#f37a7a" d="m336.5 307.5 13 3.5c2.5 4.1 4.2 8.6 5 13.5 3.3 9.6 6.5 19.3 9.5 29a76 76 0 0 1 4-11c.7-2 1.9-3.8 3.5-5-1.9 5.6-3.5 11.3-5 17-2.4 7.5-4.2 15.2-5.5 23-1.8 1.4-3.7 1.7-5.5 1-7.7-21-15.6-42-23.5-63a5 5 0 0 0-3.5-2.5c2.1-1.4 4.5-2.4 7-3 .8-.7 1-1.5 1-2.5Z"></path><path fill="#4b9df2" d="M310.5 252.5c-3.5 7.3-5.7 15-6.5 23a114.3 114.3 0 0 0 32.5 32c0 1-.2 1.8-1 2.5-2.5.6-4.9 1.6-7 3a5 5 0 0 1 3.5 2.5c8 21 15.8 42 23.5 63 1.8.7 3.7.4 5.5-1 1.3-7.8 3.1-15.5 5.5-23 29.4 4.7 58 12.2 86 22.5 4.7 2 9 4.5 13 7.5v3c-.6 7.7-1.6 15.4-3 23a177 177 0 0 1-8.5 22 195.4 195.4 0 0 0-85.5-20c-31.4-.2-62.4 3.3-93 10.5-8.4 2.7-16.7 5.6-25 8.5.1-8-.4-16-1.5-24-.5-4-1.6-7.6-3.5-11 1-8.3 1.2-16.6.5-25a101.2 101.2 0 0 0-37.5-37.5 53.4 53.4 0 0 0-28-5.5c-.1-2.4.9-4.2 3-5.5l18-13c1.5-1 3.2-1.5 5-1.5a64.4 64.4 0 0 1 26 24c5 8.1 10.1 16.1 15.5 24 .7 4 .5 8-.5 12 .2 1.2 1 1.9 2 2 12.2-2.3 24.2-5 36-8 18.5-3.6 37.2-6.6 56-9-4.7-13.4-9.6-26.7-14.5-40-3-.6-6-1-9-1a237 237 0 0 1-23.5 1.5 180 180 0 0 1-13.5-17.5 51 51 0 0 1-7.5-20c1.9-6 4-12 6.5-18 1.5-2.2 3.3-4 5.5-5.5 8.3.8 16.6.6 25-.5Z"></path><path fill="#d77176" d="M420.5 319.5h-3c.2 2 0 4-.5 6-1.9-2.4-4-3-6.5-2-8.4-3.6-17-4.6-26-3v-1c6.6-1.6 13.2-2.6 20-3 5.6 0 11 1 16 3Z"></path><path fill="#fefdfd" d="M410.5 323.5a76 76 0 0 1 12 8c5.8-4.6 10.8-3.8 15 2.5a25 25 0 0 1 14 5.5c1.3-1 2.6-1.1 4-.5 3.4 3 7.4 5 12 6 .8 1 1.2 2.2 1 3.5-.8 5-1.2 10-1 15-1.3 6.8-2 13.8-2 21a62 62 0 0 0-13-7.5 453.6 453.6 0 0 0-86-22.5c1.5-5.7 3.1-11.4 5-17 3.6-6.2 8-12 13-17 9-1.6 17.6-.6 26 3Zm-230 5c9.8-.7 19.2 1.1 28 5.5a101.2 101.2 0 0 1 37.5 37.5c.7 8.4.5 16.7-.5 25-6.7-4-13-8.5-19-13.5a61.9 61.9 0 0 0-41-7c-6.8 1.5-13.4 3.4-20 5.5a119 119 0 0 1 3.5-32 40.8 40.8 0 0 1 11.5-21Z"></path><path fill="#529aed" d="M473.5 333.5c2.7-.2 5 .6 7 2.5 4.3 3.8 8 8 11 12.5-5.2.3-9.3 2.7-12.5 7-3.3 4.2-5.8 9-7.5 14a6 6 0 0 0-2 5v1c-.7.4-1.2 1-1.5 2a18 18 0 0 1 .5-8c.6-7 1-14 1-21a14.7 14.7 0 0 1 4-15Z"></path><path fill="#da2a28" d="M431.5 107.5c.8.8 1.3 1.8 1.5 3 .8 17.7 3 35.2 6.5 52.5l-3 21c5.5 33.8-4 62.6-28.5 86.5a15 15 0 0 0-1 10c5 8.3 11.3 15.8 18.5 22.5 19.2 10.4 38.2 21 57 32a89.1 89.1 0 0 1 30.5 57.5c4 35.9 9.3 71.5 16 107 1.3 28 1 56-1 84 .2 13.6-6 22.7-18.5 27.5l-55 11c-8 1.1-12.3 5.6-13 13.5 1.8 11 2.8 22 3 33-1.1 0-2.1.4-3 1 .6-8 0-15.7-2-23 .4-.8.8-1.6 1-2.5-2-7.4-3.3-14.9-4-22.5a879.4 879.4 0 0 1 75-15.5 20 20 0 0 0 10.5-7.5c2.7-12.8 4-25.8 4-39a930 930 0 0 0 0-61c-1.2-7.7-2.6-15.4-4-23-.7-1.2-1.5-2.2-2.5-3 1.5.3 2.8 0 4-1-2-2.7-3-5.7-3.5-9-1.6-8.3-3-16.7-4.5-25a446.3 446.3 0 0 0-6-46 73.3 73.3 0 0 0-18-43c-3-4.6-6.7-8.7-11-12.5a8.5 8.5 0 0 0-7-2.5 345.3 345.3 0 0 0-38-20.5c-6.9-4.3-13.5-8.8-20-13.5a60 60 0 0 0-21-27l2-3 9-1.5c8-9.2 15.2-19 21.5-29.5a94 94 0 0 0 8-46c-.4-2-1.2-3.7-2.5-5-.5-1.9-1.2-3.7-2-5.5 3.3-5 5.3-10.6 6-16.5 1.4-3.4 1-6.7-1-10v-1c-.1-2.6-1-5-2.5-7-1.1-7.6-1.8-15.3-2-23-.2-2.7-1-5-2.5-7 1.4-3.2 2.4-6.5 3-10Z"></path><path fill="#fdfafa" d="M491.5 348.5a73.3 73.3 0 0 1 18 43 49.6 49.6 0 0 0-47 19c1.4-7.6 2.4-15.3 3-23 1.6-3.9 3-7.9 4-12v-1a6 6 0 0 0 2-5c1.7-5 4.2-9.8 7.5-14 3.2-4.3 7.3-6.7 12.5-7Z"></path><path fill="#ba3834" d="M468.5 348.5h1c0 7-.4 14-1 21a9.6 9.6 0 0 1-1-6c-.2-5 .2-10 1-15Z"></path><path fill="#b9413e" d="M285.5 362.5c-11.8 3-23.8 5.7-36 8 2.7-1.6 5.7-2.8 9-3.5 9-1.8 18-3.3 27-4.5Z"></path><path fill="#b95e66" d="M471.5 369.5a6 6 0 0 1-2 5 6 6 0 0 1 2-5Z"></path><path fill="#f97d7d" d="M245.5 396.5c1.9 3.4 3 7 3.5 11 1.1 8 1.6 16 1.5 24a77.8 77.8 0 0 0-34-7c-17.3.5-34.3 2.8-51 7a376.5 376.5 0 0 1 0-50c6.6-2.1 13.2-4 20-5.5 14.5-2.4 28.2 0 41 7 6 5 12.3 9.5 19 13.5Z"></path><path fill="#ba6b75" d="M467.5 363.5c-.3 2.2 0 4.2 1 6-.8 2.6-1 5.3-.5 8 .3-1 .8-1.6 1.5-2-1 4.1-2.4 8.1-4 12v-3c0-7.2.7-14.2 2-21Z"></path><path fill="#f97d7d" d="M509.5 391.5c2.8 15.1 4.8 30.4 6 46-20.8-4.3-41.4-4-62 1l-3 21a63.6 63.6 0 0 0-8.5 13c-.2 7.2-.7 14.2-1.5 21v-22c-15-3-30-5.9-45-8.5-15-2.3-30-3-45-2a408 408 0 0 1-54.5 10.5 331 331 0 0 0-43.5-4c-.9-12-1.5-24-2-36a735 735 0 0 1 25-8.5 394.6 394.6 0 0 1 93-10.5c30 .2 58.6 6.9 85.5 20a177 177 0 0 0 8.5-22 49.6 49.6 0 0 1 47-19Z"></path><path fill="#4d9df2" d="M250.5 431.5c.5 12 1.1 24 2 36h-5a115.4 115.4 0 0 0-80 5c0-13.7-.6-27.4-2-41 16.7-4.2 33.7-6.5 51-7a77.8 77.8 0 0 1 34 7Z"></path><path fill="#4c9cf2" d="m515.5 437.5 4.5 25c.4 3.3 1.6 6.3 3.5 9a4.9 4.9 0 0 1-4 1l-4-2.5c-16.4-1-32.7-.3-49 2-4.3.8-8.3 2.3-12 4.5l-2-2c-.4-5-1-10-2-15l3-21c20.6-5 41.2-5.3 62-1Z"></path><path fill="#fefefe" d="M440.5 493.5a33 33 0 0 1-5 18c-2.3.6-4.6 1-7 1.5-.6.4-.9.9-1 1.5h-1a9050 9050 0 0 0-169 0c-1-15.6-2.6-31.3-5-47 14.6.4 29 1.7 43.5 4a408 408 0 0 0 54.5-10.5c15-1 30-.3 45 2 15 2.6 30 5.5 45 8.5v22Z"></path><path fill="#e59e77" d="M247.5 467.5c.8 1.8.2 3.3-2 4.5-11.3 9-22.3 18.3-33 28 8.4 16 16.4 32.2 24 48.5 47.5 2.1 93.5-4.5 138-20l17-2.5c11.4-4.7 23-8.6 35-11.5h1a60.6 60.6 0 0 1 20.5 28c.7 2.7.7 5.3 0 8a6.9 6.9 0 0 1-4.5 3c-.8-1-1.8-1.2-3-.5a15499 15499 0 0 0-150 67.5c-22 1.5-44 2.5-66 3a124.5 124.5 0 0 1-24.5-25 13 13 0 0 1-1.5 5c1.4-5 .6-9.6-2.5-14a5511 5511 0 0 1-28.5-117 115.4 115.4 0 0 1 80-5Z"></path><path fill="#cf8f6b" d="M247.5 467.5h5c2.4 15.7 4 31.4 5 47 .5 6 1.2 12 2 18h13a820 820 0 0 0 32 2 104 104 0 0 0 17-2c17.7-.8 35.4-2.2 53-4a366.4 366.4 0 0 1-138 20c-7.6-16.3-15.6-32.5-24-48.5 10.7-9.7 21.7-19 33-28 2.2-1.2 2.8-2.7 2-4.5Z"></path><path fill="#e59e76" d="M519.5 472.5c1 .8 1.8 1.8 2.5 3 1.4 7.6 2.8 15.3 4 23a930 930 0 0 1 0 61c0 13.2-1.3 26.2-4 39a20 20 0 0 1-10.5 7.5c-25.3 4-50.3 9.3-75 15.5-21.6 2.2-43.3 4.2-65 6-24.2-2-48.2-4.7-72-8a136 136 0 0 0 22-6.5c41.6-18 82.3-37.8 122-59.5-1 .9-1 1.5 0 2a800.7 800.7 0 0 1 34-16.5 69 69 0 0 0-16 3.5c0-8-1.4-16-4-23.5 1.9-.6 2.2-1.4 1-2.5a636 636 0 0 0-6-42l2 2c3.7-2.2 7.7-3.7 12-4.5 16.3-2.3 32.6-3 49-2 1.4 1 2.7 1.8 4 2.5Z"></path><path fill="#d62726" d="M450.5 459.5c1 5 1.6 10 2 15 2.5 14 4.5 28 6 42 0 .5-.4.9-1 1-7.3-2.6-14.6-4.6-22-6a33 33 0 0 0 5-18c.8-6.8 1.3-13.8 1.5-21 2.4-4.8 5.2-9.1 8.5-13Z"></path><path fill="#4b9df2" d="M426.5 514.5c-12 3-23.6 6.8-35 11.5-5.7 1-11.3 1.8-17 2.5a920.7 920.7 0 0 1-53 4h-62c-.8-6-1.5-12-2-18a9050 9050 0 0 1 169 0Z"></path><path fill="#d08e6b" d="M435.5 511.5c7.4 1.4 14.7 3.4 22 6 .6-.1 1-.5 1-1 1.2 1 .9 1.9-1 2.5a72 72 0 0 1 4 23.5 69 69 0 0 1 16-3.5 800.7 800.7 0 0 0-34 16.5c-1-.5-1-1.1 0-2a6.9 6.9 0 0 0 4.5-3c.7-2.7.7-5.3 0-8a60.6 60.6 0 0 0-20.5-28c.1-.6.4-1.1 1-1.5 2.4-.4 4.7-1 7-1.5Z"></path><path fill="#6d8bc0" d="M272.5 532.5h49a104 104 0 0 1-17 2 820 820 0 0 1-32-2Z"></path><path fill="#d18f6b" d="M443.5 553.5a1472.7 1472.7 0 0 1-122 59.5 136 136 0 0 1-22 6.5c-3-.1-6 .2-9 1a15499 15499 0 0 1 150-67.5c1.2-.7 2.2-.6 3 .5Z"></path><path fill="#fdfcfd" d="M290.5 620.5c3-.8 6-1.1 9-1 23.8 3.3 47.8 6 72 8 21.7-1.8 43.4-3.8 65-6 .7 7.6 2 15.1 4 22.5-.2.9-.6 1.7-1 2.5-2.3 1.8-5 3-8 3.5-36.8 5-73.8 7.2-111 6.5-27 0-54-.6-81-1.5-7.3-1.8-14.3-4.3-21-7.5-1.2-2.5-3.2-3.5-6-3a85 85 0 0 1-22-11c2.1-2.6 3.5-5.6 4-9a22.8 22.8 0 0 1 4-21 13 13 0 0 0 1.5-5c7 9.5 15.2 17.9 24.5 25 22-.5 44-1.5 66-3Z"></path><path fill="#4b9df3" d="M190.5 633.5a85 85 0 0 0 22 11c1.7 1.5 3.7 2.5 6 3 6.7 3.2 13.7 5.7 21 7.5 27 1 54 1.4 81 1.5 37.2.7 74.2-1.5 111-6.5 3-.6 5.7-1.7 8-3.5 2 7.3 2.6 15 2 23a351.8 351.8 0 0 1-230-13.5 294 294 0 0 1-29-14.5l6-7.5c.6-.5 1.3-.6 2-.5Z"></path><path fill="#b86871" d="M212.5 644.5c2.8-.5 4.8.5 6 3-2.3-.5-4.3-1.5-6-3Z"></path></svg></svg></g></svg>